<svg xmlns="http://www.w3.org/2000/svg" width="200" height="200" viewBox="0 0 240 240" fill="none">
    <path d="M104,90 Q60,75 58,120 Q60,165 104,150 Z" style="stroke:oklch(30% 0.03 255);fill:oklch(97% 0.004 255);stroke-width:5;stroke-linejoin:round"></path>
    <path d="M136,90 Q180,75 182,120 Q180,165 136,150 Z" style="stroke:oklch(30% 0.03 255);fill:oklch(97% 0.004 255);stroke-width:5;stroke-linejoin:round"></path>
    <rect x="104" y="85" width="32" height="70" rx="6" style="stroke:oklch(30% 0.03 255);fill:oklch(97% 0.004 255);stroke-width:5"></rect>
    <line x1="40" y1="55" x2="200" y2="55" style="stroke:oklch(30% 0.03 255);stroke-width:5;stroke-linecap:round"></line>
    <line x1="40" y1="40" x2="40" y2="55" style="stroke:oklch(30% 0.03 255);stroke-width:5;stroke-linecap:round"></line>
    <line x1="200" y1="40" x2="200" y2="55" style="stroke:oklch(30% 0.03 255);stroke-width:5;stroke-linecap:round"></line>
    <circle cx="70" cy="55" r="6" style="stroke:oklch(30% 0.03 255);fill:oklch(97% 0.004 255);stroke-width:4"></circle>
    <circle cx="170" cy="55" r="6" style="stroke:oklch(30% 0.03 255);fill:oklch(97% 0.004 255);stroke-width:4"></circle>
    <line x1="120" y1="55" x2="120" y2="85" style="stroke:oklch(30% 0.03 255);stroke-width:5;stroke-linecap:round"></line>
    <line x1="40" y1="185" x2="200" y2="185" style="stroke:oklch(30% 0.03 255);stroke-width:5;stroke-linecap:round"></line>
    <line x1="40" y1="185" x2="40" y2="200" style="stroke:oklch(30% 0.03 255);stroke-width:5;stroke-linecap:round"></line>
    <line x1="200" y1="185" x2="200" y2="200" style="stroke:oklch(30% 0.03 255);stroke-width:5;stroke-linecap:round"></line>
    <circle cx="70" cy="185" r="6" style="stroke:oklch(30% 0.03 255);fill:oklch(97% 0.004 255);stroke-width:4"></circle>
    <circle cx="170" cy="185" r="6" style="stroke:oklch(30% 0.03 255);fill:oklch(97% 0.004 255);stroke-width:4"></circle>
    <line x1="120" y1="185" x2="120" y2="155" style="stroke:oklch(30% 0.03 255);stroke-width:5;stroke-linecap:round"></line>
  </svg>
